<svg xmlns="http://www.w3.org/2000/svg" viewBox="244 256 248 248">
  <style>
    path { fill: #5253DA; }
    @media (prefers-color-scheme: dark) { path { fill: #FFFFFF; } }
  </style>
  <path d="M368.545 276.44C392.265 276.148 411.124 281.991 431.112 294.478C428.08 298.291 426.844 300.435 424.432 304.629C423.311 303.839 422.169 303.078 421.008 302.349C400.36 289.425 373.002 285.604 349.385 291.12C324.822 296.666 303.505 311.82 290.195 333.198C276.45 355.296 272.241 382.02 278.528 407.274C284.539 431.953 300.246 453.167 322.096 466.119C343.542 479.042 371.03 482.681 395.258 476.587C419.619 470.344 440.513 454.701 453.364 433.083C467.363 409.607 469.689 382.906 463.017 356.729C459.405 345.86 457.099 340.843 451.574 330.764C454.759 329.069 458.24 326.803 461.343 324.887C470.917 339.351 477.057 358.987 478.291 376.228C480.402 405.014 470.934 433.451 451.988 455.226C433.348 476.491 407.01 489.462 378.79 491.275C350.668 493.094 321.787 483.919 300.606 465.12C278.797 445.838 265.542 418.682 263.755 389.626C262.251 361.043 272.193 333.038 291.385 311.804C311.522 289.147 338.701 278.209 368.545 276.44Z"/>
  <path d="M442.775 300.065C448.447 298.788 454.088 302.322 455.414 307.983C456.74 313.644 453.255 319.316 447.606 320.691C441.888 322.083 436.131 318.545 434.789 312.815C433.447 307.084 437.033 301.358 442.775 300.065Z"/>
</svg>
