<svg xmlns="http://www.w3.org/2000/svg" viewBox="350 350 340 340">
  <path fill="#5653E7" d="M509.96 400.725C532.763 400.387 555.155 406.808 574.314 419.178C570.413 423.156 569.542 424.513 567.385 429.643C555.216 422.473 545.063 417.723 531.061 415.027C489.278 406.981 449.833 424.786 427.676 460.803C414.158 482.879 409.968 509.422 416.029 534.589C422.586 561.205 438.015 582.76 461.686 596.837C484.352 610.064 511.306 613.86 536.743 607.406C562.335 600.761 584.243 584.231 597.656 561.445C611.73 537.278 613.57 509.442 606.493 482.758C602.995 472.169 600.644 465.916 594.454 456.622C599.178 454.883 600.942 453.504 604.757 450.49C616.129 466.729 621.795 486.813 622.813 506.446C624.493 535.723 614.28 564.438 594.489 586.078C574.063 608.555 547.703 621.22 517.288 622.672C487.395 624.078 458.197 613.373 436.296 592.979C415.06 573.211 402.396 545.924 401.006 516.945C398.351 453.299 446.844 403.203 509.96 400.725Z"/>
  <path fill="#5653E7" d="M585.512 425.121C589.298 424.13 593.325 425.249 596.057 428.051C598.789 430.853 599.805 434.907 598.718 438.667C597.631 442.426 594.608 445.312 590.802 446.224C585.002 447.613 579.166 444.074 577.716 438.289C576.266 432.505 579.743 426.631 585.512 425.121Z"/>
</svg>
