<?xml version="1.0" encoding="utf-8" ?><svg xmlns="http://www.w3.org/2000/svg" xmlns:xlink="http://www.w3.org/1999/xlink" viewBox="248 264 872 236"><path fill="#5253DA" d="M583.904 308.256C590.53 308.166 597.157 308.187 603.783 308.318L603.589 364.964C613.267 354.689 621.969 348.337 636.471 346.818C690.72 341.133 714.172 403.879 682.037 442.896C665.591 460.453 639.135 464.356 618.218 452.482C611.73 448.799 608.288 445.061 603.43 439.66L603.446 457.143C597.043 457.309 590.352 457.259 583.922 457.307L583.904 308.256Z"/><path fill="#0F061E" d="M635.404 365.253C656.108 362.616 675.009 377.32 677.547 398.039C680.085 418.757 665.292 437.589 644.563 440.029C623.973 442.452 605.295 427.779 602.774 407.199C600.253 386.619 614.837 367.871 635.404 365.253Z"/><path fill="#5253DA" d="M1045.91 346.917C1065.96 344.383 1079.49 350.555 1092.64 364.979L1092.48 348.383L1112.13 348.484L1112.07 457.176L1092.66 457.194L1092.52 440.334L1085.88 447.092C1078.42 453.054 1071.65 456.891 1061.94 458.56C1047.81 461.098 1033.27 457.784 1021.63 449.38C984.791 422.502 994.264 354.747 1045.91 346.917Z"/><path fill="#0F061E" d="M1051.71 365.401C1072.31 362.968 1090.98 377.707 1093.4 398.313C1095.82 418.919 1081.06 437.581 1060.46 439.984C1039.87 442.384 1021.24 427.65 1018.82 407.065C1016.41 386.48 1031.13 367.832 1051.71 365.401Z"/><path fill="#5253DA" d="M762.373 346.944C803.533 343.266 826.753 369.408 824.055 409.178L734.666 409.276C736.398 418.808 739.381 427.626 747.293 433.716C763.339 446.067 785.772 444.867 798.369 428.842C799.633 427.013 800.326 426.248 802.616 426.053C808.821 425.524 815.263 425.865 821.49 425.986C819.482 431.053 818.067 434.154 814.798 438.579C806.691 449.466 794.556 456.647 781.111 458.51C701.617 469.965 689.97 356.301 762.373 346.944Z"/><path fill="#0F061E" d="M764.684 363.702C787.173 362.529 799.155 371.592 804.607 393.206L776.855 393.212C762.875 393.084 748.946 393.467 734.959 393.159C738.011 376.636 748.203 366.59 764.684 363.702Z"/><path fill="#5253DA" d="M368.545 276.44C392.265 276.148 411.124 281.991 431.112 294.478C428.08 298.291 426.844 300.435 424.432 304.629C423.311 303.839 422.169 303.078 421.008 302.349C400.36 289.425 373.002 285.604 349.385 291.12C324.822 296.666 303.505 311.82 290.195 333.198C276.45 355.296 272.241 382.02 278.528 407.274C284.539 431.953 300.246 453.167 322.096 466.119C343.542 479.042 371.03 482.681 395.258 476.587C419.619 470.344 440.513 454.701 453.364 433.083C467.363 409.607 469.689 382.906 463.017 356.729C459.405 345.86 457.099 340.843 451.574 330.764C454.759 329.069 458.24 326.803 461.343 324.887C470.917 339.351 477.057 358.987 478.291 376.228C480.402 405.014 470.934 433.451 451.988 455.226C433.348 476.491 407.01 489.462 378.79 491.275C350.668 493.094 321.787 483.919 300.606 465.12C278.797 445.838 265.542 418.682 263.755 389.626C262.251 361.043 272.193 333.038 291.385 311.804C311.522 289.147 338.701 278.209 368.545 276.44Z"/><path fill="#5253DA" d="M855.259 316.219C861.759 316.08 868.458 316.225 874.975 316.286L874.875 348.454C885.314 348.612 895.985 348.522 906.445 348.547L906.432 365.525L874.894 365.452L874.82 404.031C874.812 412.234 874.591 418.86 875.429 427.064C877.489 447.228 899.682 436.47 906.194 441.212L906.429 443.968L906.473 457.329L904.922 457.348C895.974 457.42 883.873 457.893 875.375 455.602C852.579 449.456 855.217 425.443 855.231 406.992L855.308 365.458L836.059 365.458L835.883 348.386C842.282 348.516 848.877 348.463 855.295 348.493L855.259 316.219Z"/><path fill="#5253DA" d="M553.281 346.882C556.047 346.655 560.129 346.692 563.004 346.625L563.111 366.265C562.439 366.241 561.767 366.224 561.095 366.213C523.554 365.625 524.642 390.455 524.683 418.848L524.75 457.373C520.876 457.448 508.96 458.325 505.347 456.628C504.587 456.271 504.751 454.865 504.656 453.711L504.667 348.554L524.238 348.55L524.173 366.028C532.769 354.284 538.364 349.485 553.281 346.882Z"/><path fill="#5253DA" d="M978.306 346.926C980.699 346.67 984.791 346.71 987.322 346.655C987.45 353.161 987.43 359.77 987.469 366.286L987.126 366.28C951.669 365.722 947.887 384.826 948.634 414.723C948.975 428.346 948.684 443.546 948.718 457.243C943.221 457.24 932.776 458.927 929.075 455.878L928.92 452.367C929.472 418.619 929.102 382.279 928.814 348.486L948.594 348.566L948.467 365.781C948.882 365.149 949.318 364.53 949.773 363.926C957.826 353.205 965.171 348.821 978.306 346.926Z"/><path fill="#5253DA" d="M442.775 300.065C448.447 298.788 454.088 302.322 455.414 307.983C456.74 313.644 453.255 319.316 447.606 320.691C441.888 322.083 436.131 318.545 434.789 312.815C433.447 307.084 437.033 301.358 442.775 300.065Z"/></svg>